<?xml version="1.0" encoding="UTF-8" standalone="no"?>
<!-- Created with Inkscape (http://www.inkscape.org/) -->

<svg
   xmlns:dc="http://purl.org/dc/elements/1.1/"
   xmlns:cc="http://creativecommons.org/ns#"
   xmlns:rdf="http://www.w3.org/1999/02/22-rdf-syntax-ns#"
   xmlns:svg="http://www.w3.org/2000/svg"
   xmlns="http://www.w3.org/2000/svg"
   xmlns:sodipodi="http://sodipodi.sourceforge.net/DTD/sodipodi-0.dtd"
   xmlns:inkscape="http://www.inkscape.org/namespaces/inkscape"
   width="210mm"
   height="297mm"
   viewBox="0 0 210 297"
   version="1.1"
   id="svg4712"
   inkscape:version="0.92.2 2405546, 2018-03-11"
   sodipodi:docname="pattern-buffer-v2.svg">
  <defs
     id="defs4706" />
  <sodipodi:namedview
     id="base"
     pagecolor="#000000"
     bordercolor="#666666"
     borderopacity="1.0"
     inkscape:pageopacity="0"
     inkscape:pageshadow="2"
     inkscape:zoom="0.5"
     inkscape:cx="800.92289"
     inkscape:cy="492.75948"
     inkscape:document-units="mm"
     inkscape:current-layer="layer1"
     showgrid="true"
     inkscape:window-width="1920"
     inkscape:window-height="1012"
     inkscape:window-x="0"
     inkscape:window-y="0"
     inkscape:window-maximized="0"
     viewbox-x="0">
    <inkscape:grid
       type="axonomgrid"
       id="grid5261"
       units="mm"
       empspacing="6"
       spacingy="6"
       enabled="false" />
  </sodipodi:namedview>
  <metadata
     id="metadata4709">
    <rdf:RDF>
      <cc:Work
         rdf:about="">
        <dc:format>image/svg+xml</dc:format>
        <dc:type
           rdf:resource="http://purl.org/dc/dcmitype/StillImage" />
        <dc:title></dc:title>
      </cc:Work>
    </rdf:RDF>
  </metadata>
  <g
     inkscape:label="Layer 1"
     inkscape:groupmode="layer"
     id="layer1">
    <path
       style="opacity:1;fill:none;stroke:#fafafa;stroke-width:5.2;stroke-linecap:round;stroke-linejoin:bevel;stroke-miterlimit:4;stroke-dasharray:none;stroke-opacity:1;paint-order:normal"
       d="M 201.3151,210.48653 V 98.843214 L 104.62915,43.021557 7.9432202,98.843214 V 210.48653 l 96.6859298,55.82165 z"
       id="path5263"
       inkscape:connector-curvature="0" />
    <path
       style="opacity:1;fill:none;stroke:#fafafa;stroke-width:5.2;stroke-linecap:round;stroke-linejoin:bevel;stroke-miterlimit:4;stroke-dasharray:none;stroke-opacity:1;paint-order:normal"
       d="M 104.62915,266.30818 V 154.66486 L 201.3151,98.843214"
       id="path5267"
       inkscape:connector-curvature="0" />
    <path
       style="opacity:1;fill:none;stroke:#fafafa;stroke-width:5.2;stroke-linecap:round;stroke-linejoin:bevel;stroke-miterlimit:4;stroke-dasharray:none;stroke-opacity:1;paint-order:normal"
       d="M 104.62915,154.66486 7.9432202,98.843214 v 0 0"
       id="path5269"
       inkscape:connector-curvature="0" />
    <path
       style="opacity:1;fill:none;stroke:#fafafa;stroke-width:5.2;stroke-linecap:round;stroke-linejoin:bevel;stroke-miterlimit:4;stroke-dasharray:none;stroke-opacity:1;paint-order:normal"
       d="M 136.85781,136.05765 V 247.70096"
       id="path5283"
       inkscape:connector-curvature="0" />
    <path
       style="opacity:1;fill:none;stroke:#fafafa;stroke-width:5.2;stroke-linecap:round;stroke-linejoin:bevel;stroke-miterlimit:4;stroke-dasharray:none;stroke-opacity:1;paint-order:normal"
       d="M 136.85781,247.70096 7.9432202,173.27209 v 0"
       id="path5285"
       inkscape:connector-curvature="0" />
    <path
       style="opacity:1;fill:none;stroke:#fafafa;stroke-width:5.2;stroke-linecap:round;stroke-linejoin:bevel;stroke-miterlimit:4;stroke-dasharray:none;stroke-opacity:1;paint-order:normal"
       d="M 104.62915,191.8793 7.9432202,136.05765 v 0 0 L 136.85781,61.628775"
       id="path5287"
       inkscape:connector-curvature="0" />
    <path
       style="opacity:1;fill:none;stroke:#fafafa;stroke-width:5.2;stroke-linecap:round;stroke-linejoin:bevel;stroke-miterlimit:4;stroke-dasharray:none;stroke-opacity:1;paint-order:normal"
       d="M 72.400516,136.05765 169.08645,80.235992"
       id="path5289"
       inkscape:connector-curvature="0" />
    <path
       style="opacity:1;fill:none;stroke:#fafafa;stroke-width:5.2;stroke-linecap:round;stroke-linejoin:bevel;stroke-miterlimit:4;stroke-dasharray:none;stroke-opacity:1;paint-order:normal"
       d="m 169.08645,80.235992 v 148.857748 0"
       id="path5291"
       inkscape:connector-curvature="0" />
    <path
       style="opacity:1;fill:none;stroke:#fafafa;stroke-width:5.2;stroke-linecap:round;stroke-linejoin:bevel;stroke-miterlimit:4;stroke-dasharray:none;stroke-opacity:1;paint-order:normal"
       d="M 104.62915,43.021557 V 80.235992"
       id="path5293"
       inkscape:connector-curvature="0" />
    <path
       style="opacity:1;fill:none;stroke:#fafafa;stroke-width:5.2;stroke-linecap:round;stroke-linejoin:bevel;stroke-miterlimit:4;stroke-dasharray:none;stroke-opacity:1;paint-order:normal"
       d="m 136.85781,61.628774 v 37.21444"
       id="path5295"
       inkscape:connector-curvature="0" />
    <path
       style="opacity:1;fill:none;stroke:#fafafa;stroke-width:5.2;stroke-linecap:round;stroke-linejoin:bevel;stroke-miterlimit:4;stroke-dasharray:none;stroke-opacity:1;paint-order:normal"
       d="M 169.08645,229.09374 136.85781,210.48653"
       id="path5297"
       inkscape:connector-curvature="0" />
    <path
       style="opacity:1;fill:none;stroke:#fafafa;stroke-width:5.2;stroke-linecap:round;stroke-linejoin:bevel;stroke-miterlimit:4;stroke-dasharray:none;stroke-opacity:1;paint-order:normal"
       d="M 201.3151,210.48653 169.08645,191.8793"
       id="path5299"
       inkscape:connector-curvature="0" />
    <path
       style="opacity:1;fill:none;stroke:#fafafa;stroke-width:5.2;stroke-linecap:round;stroke-linejoin:bevel;stroke-miterlimit:4;stroke-dasharray:none;stroke-opacity:1;paint-order:normal"
       d="M 7.9432202,210.48653 40.171869,191.8793"
       id="path5301"
       inkscape:connector-curvature="0" />
    <path
       style="opacity:1;fill:none;stroke:#fafafa;stroke-width:5.2;stroke-linecap:round;stroke-linejoin:bevel;stroke-miterlimit:4;stroke-dasharray:none;stroke-opacity:1;paint-order:normal"
       d="M 7.9432202,173.27209 40.171869,154.66486"
       id="path5303"
       inkscape:connector-curvature="0" />
    <path
       style="opacity:1;fill:#b4b4b4;fill-opacity:1;stroke:#fafafa;stroke-width:5.2;stroke-linejoin:bevel;stroke-miterlimit:4;stroke-dasharray:none;stroke-opacity:1;paint-order:normal;stroke-linecap:round"
       d="m 8.1717263,191.97782 c 0,-15.42059 0.056963,-18.09043 0.3832737,-17.96522 0.2936604,0.11269 30.694293,17.58679 31.001307,17.81937 0.0373,0.0283 -6.732048,3.97172 -15.04299,8.76326 -8.310941,4.79155 -15.3877295,8.88808 -15.7261966,9.1034 l -0.6153941,0.39151 z"
       id="path5305"
       inkscape:connector-curvature="0" />
    <path
       style="opacity:1;fill:#b4b4b4;fill-opacity:1;stroke:#fafafa;stroke-width:5.2;stroke-linejoin:bevel;stroke-miterlimit:4;stroke-dasharray:none;stroke-opacity:1;paint-order:normal;stroke-linecap:round"
       d="m 8.1717263,154.67856 v -18.17864 l 15.3848747,8.88862 c 8.461681,4.88875 15.539664,8.97606 15.728847,9.08292 0.208417,0.11772 -5.709922,3.69269 -15.017447,9.07129 -8.448782,4.88235 -15.5267641,8.97542 -15.7288491,9.09571 -0.3060711,0.18221 -0.3674256,-2.81685 -0.3674256,-17.9599 z"
       id="path5307"
       inkscape:connector-curvature="0" />
    <path
       style="opacity:1;fill:#b4b4b4;fill-opacity:1;stroke:#fafafa;stroke-width:5.2;stroke-linejoin:bevel;stroke-miterlimit:4;stroke-dasharray:none;stroke-opacity:1;paint-order:normal;stroke-linecap:round"
       d="M 8.1717263,117.4273 V 99.243514 l 0.6153941,0.38843 c 0.3384671,0.21363 7.3847406,4.291816 15.6583836,9.062646 8.273644,4.77081 15.069092,8.69683 15.100998,8.72447 0.0319,0.0275 -4.337401,2.58597 -9.709566,5.68516 -5.372166,3.0992 -12.444543,7.18111 -15.716392,9.0709 l -5.9488177,3.43596 z"
       id="path5309"
       inkscape:connector-curvature="0" />
    <path
       style="opacity:1;fill:#b4b4b4;fill-opacity:1;stroke:#fafafa;stroke-width:5.2;stroke-linejoin:bevel;stroke-miterlimit:4;stroke-dasharray:none;stroke-opacity:1;paint-order:normal;stroke-linecap:round"
       d="M 40.025254,116.79241 C 39.880467,116.65566 32.992657,112.63629 24.719012,107.8605 16.445368,103.0847 9.5226989,99.037254 9.3353006,98.866184 9.0739253,98.627574 19.965803,92.223531 56.10532,71.367036 82.016226,56.413576 103.49298,44.003084 103.83145,43.788164 l 0.6154,-0.390762 V 61.712134 80.026868 L 72.532801,98.462154 C 54.980077,108.60157 40.544448,116.92976 40.453629,116.96925 c -0.09082,0.0394 -0.283587,-0.0402 -0.428375,-0.17684 z"
       id="path5311"
       inkscape:connector-curvature="0" />
    <path
       style="opacity:1;fill:#737373;fill-opacity:1;stroke:#fafafa;stroke-width:5.2;stroke-linejoin:bevel;stroke-miterlimit:4;stroke-dasharray:none;stroke-opacity:1;paint-order:normal;stroke-linecap:round"
       d="m 105.26736,61.663969 c 0,-9.879336 0.0923,-17.907159 0.20514,-17.839606 0.11282,0.06756 6.97448,4.025966 15.24812,8.796473 8.27364,4.770508 15.14036,8.764551 15.25937,8.875653 0.11901,0.111099 -6.46573,4.056703 -14.63273,8.768005 -8.167,4.711304 -15.12603,8.745085 -15.4645,8.963955 l -0.6154,0.39795 z"
       id="path5313"
       inkscape:connector-curvature="0" />
    <path
       style="opacity:1;fill:#737373;fill-opacity:1;stroke:#fafafa;stroke-width:5.2;stroke-linejoin:bevel;stroke-miterlimit:4;stroke-dasharray:none;stroke-opacity:1;paint-order:normal;stroke-linecap:round"
       d="M 136.9944,80.251698 V 62.004887 l 0.88891,0.524241 c 0.48889,0.288334 7.57205,4.380596 15.74036,9.093914 8.16829,4.713318 14.75302,8.653534 14.63273,8.756032 -0.12032,0.102495 -6.92655,4.045458 -15.12497,8.762136 -8.19843,4.716676 -15.18317,8.751614 -15.52162,8.966534 l -0.61541,0.39077 z"
       id="path5315"
       inkscape:connector-curvature="0" />
    <path
       style="opacity:1;fill:#737373;fill-opacity:1;stroke:#fafafa;stroke-width:5.2;stroke-linejoin:bevel;stroke-miterlimit:4;stroke-dasharray:none;stroke-opacity:1;paint-order:normal;stroke-linecap:round"
       d="M 169.26845,98.862634 V 80.646456 l 1.31298,0.757682 c 0.72216,0.416726 7.79988,4.50485 15.72829,9.084723 l 14.41529,8.327043 -0.75368,0.46739 c -0.41452,0.25707 -7.09223,4.122576 -14.83936,8.590026 -7.74714,4.46744 -14.48572,8.36628 -14.97462,8.66406 l -0.8889,0.54143 z"
       id="path5317"
       inkscape:connector-curvature="0" />
    <path
       style="opacity:1;fill:#737373;fill-opacity:1;stroke:#fafafa;stroke-width:5.2;stroke-linejoin:bevel;stroke-miterlimit:4;stroke-dasharray:none;stroke-opacity:1;paint-order:normal;stroke-linecap:round"
       d="m 185.13197,200.82439 -15.72677,-9.08101 -0.0694,-36.80061 -0.0694,-36.80063 0.61638,-0.40099 c 1.67123,-1.08723 30.94178,-17.926506 31.02162,-17.846666 0.0508,0.0508 0.0613,24.824016 0.0233,55.051616 l -0.069,54.95929 z"
       id="path5319"
       inkscape:connector-curvature="0" />
    <path
       style="opacity:1;fill:#5e5e5e;fill-opacity:1;stroke:#fafafa;stroke-width:5.2;stroke-linejoin:bevel;stroke-miterlimit:4;stroke-dasharray:none;stroke-opacity:1;paint-order:normal;stroke-linecap:round"
       d="m 169.26845,210.70434 c 0,-10.16565 0.10397,-17.91421 0.23966,-17.8626 0.47165,0.17943 30.94159,17.82212 30.87331,17.87626 -0.0384,0.0305 -6.96214,4.02594 -15.38622,8.87897 -8.42407,4.85304 -15.4088,8.87712 -15.52162,8.94242 -0.11281,0.0654 -0.20513,-7.96048 -0.20513,-17.83505 z"
       id="path5321"
       inkscape:connector-curvature="0" />
    <path
       style="opacity:1;fill:#323232;fill-opacity:1;stroke:#fafafa;stroke-width:5.2;stroke-linejoin:bevel;stroke-miterlimit:4;stroke-dasharray:none;stroke-opacity:1;paint-order:normal;stroke-linecap:round"
       d="m 170.21302,226.64001 c -0.2093,-0.54544 -0.0183,-31.85304 0.19561,-32.06678 0.16354,-0.16338 6.26985,3.29166 22.97824,13.00139 2.9607,1.72053 5.36072,3.1437 5.33343,3.16258 -0.19428,0.13427 -27.25881,15.68641 -27.74647,15.94398 -0.49585,0.26189 -0.64766,0.25368 -0.76081,-0.0411 z"
       id="path5331"
       inkscape:connector-curvature="0" />
    <path
       style="opacity:1;fill:#323232;fill-opacity:1;stroke:#fafafa;stroke-width:5.2;stroke-linejoin:bevel;stroke-miterlimit:4;stroke-dasharray:none;stroke-opacity:1;paint-order:normal;stroke-linecap:round"
       d="m 136.9944,229.05942 v -18.18427 l 4.71803,2.72878 c 2.5949,1.50084 9.66934,5.58352 15.72094,9.07262 6.05159,3.48911 10.9132,6.42887 10.80359,6.53281 -0.1833,0.17379 -29.2295,16.96804 -30.62715,17.70835 l -0.61541,0.32597 z"
       id="path5333"
       inkscape:connector-curvature="0" />
    <path
       style="opacity:1;fill:#323232;fill-opacity:1;stroke:#fafafa;stroke-width:5.2;stroke-linejoin:bevel;stroke-miterlimit:4;stroke-dasharray:none;stroke-opacity:1;paint-order:normal;stroke-linecap:round"
       d="m 104.99386,247.74006 c 0,-9.93618 0.10038,-18.02475 0.22313,-17.97463 1.316,0.53772 30.89571,17.90283 30.74727,18.05055 -0.11036,0.10981 -6.41614,3.7881 -14.01285,8.17399 -7.5967,4.38591 -14.51991,8.38871 -15.38487,8.89511 l -1.57268,0.92076 z"
       id="path5335"
       inkscape:connector-curvature="0" />
    <path
       style="opacity:1;fill:#323232;fill-opacity:1;stroke:#fafafa;stroke-width:5.2;stroke-linejoin:bevel;stroke-miterlimit:4;stroke-dasharray:none;stroke-opacity:1;paint-order:normal;stroke-linecap:round"
       d="M 56.496088,238.21697 C 30.49924,223.19883 9.2232508,210.81111 9.2161087,210.6887 c -0.00717,-0.1224 6.3704463,-3.92219 14.1724183,-8.44395 7.801972,-4.52177 14.812986,-8.60804 15.580031,-9.08058 l 1.394625,-0.85915 32.059386,18.50229 32.059381,18.50228 -0.15431,0.78635 c -0.0849,0.43248 -0.1543,8.58647 -0.1543,18.11996 0,9.53349 -0.0922,17.32757 -0.20514,17.32021 -0.11282,-0.007 -21.475267,-12.30101 -47.472112,-27.31914 z"
       id="path5337"
       inkscape:connector-curvature="0" />
    <path
       style="opacity:1;fill:#737373;fill-opacity:1;stroke:#fafafa;stroke-width:5.2;stroke-linejoin:bevel;stroke-miterlimit:4;stroke-dasharray:none;stroke-opacity:1;paint-order:normal;stroke-linecap:round"
       d="m 164.60115,225.92647 c -1.89009,-1.1536 -8.8739,-5.23365 -15.51961,-9.06674 l -12.08309,-6.96927 -0.002,-36.79482 -0.002,-36.79484 15.65839,-9.04326 15.65837,-9.04326 0.13678,37.22257 c 0.15789,42.97742 0.0708,72.65395 -0.21287,72.61455 -0.10858,-0.0151 -1.74384,-0.9713 -3.63393,-2.12493 z"
       id="path5341"
       inkscape:connector-curvature="0" />
    <path
       style="opacity:1;fill:#737373;fill-opacity:1;stroke:#fafafa;stroke-width:5.2;stroke-linejoin:bevel;stroke-miterlimit:4;stroke-dasharray:none;stroke-opacity:1;paint-order:normal;stroke-linecap:round"
       d="m 130.4302,243.44876 c -4.63542,-2.78226 -19.85871,-11.67895 -24.2749,-14.18655 l -1.16341,-0.6606 0.0694,-36.95308 0.0694,-36.95309 15.45324,-8.92354 15.45325,-8.92355 0.0697,27.58545 c 0.0384,15.17198 0.0384,39.91429 0,54.9829 l -0.0697,27.39746 z"
       id="path5343"
       inkscape:connector-curvature="0" />
    <path
       style="opacity:1;fill:#323232;fill-opacity:1;stroke:#fafafa;stroke-width:5.2;stroke-linejoin:bevel;stroke-miterlimit:4;stroke-dasharray:none;stroke-opacity:1;paint-order:normal;stroke-linecap:round"
       d="M 76.548946,212.18444 C 61.430743,203.4591 46.96896,195.1152 44.411652,193.64244 c -2.557308,-1.47276 -9.757428,-5.62739 -16.000269,-9.23248 -6.242839,-3.60511 -13.045246,-7.51627 -15.116459,-8.69144 -2.071211,-1.17518 -3.817765,-2.2207 -3.88123,-2.32341 -0.063461,-0.10264 2.308096,-1.58825 5.270138,-3.30125 12.439845,-7.1942 20.051982,-11.66193 22.691485,-13.31818 l 2.809984,-1.76323 1.155894,0.65099 c 5.873995,3.30811 62.230445,35.91317 62.492245,36.15493 0.27083,0.25009 0.32892,4.13145 0.27351,18.27392 l -0.0704,17.9564 z"
       id="path5349"
       inkscape:connector-curvature="0" />
    <path
       style="opacity:1;fill:#323232;fill-opacity:1;stroke:#fafafa;stroke-width:5.2;stroke-linejoin:bevel;stroke-miterlimit:4;stroke-dasharray:none;stroke-opacity:1;paint-order:normal;stroke-linecap:round"
       d="M 100.75447,189.04525 C 96.907467,186.75206 61.05574,166.00605 32.103752,149.3197 19.768503,142.21034 9.5788548,136.3037 9.4600908,136.19385 9.3413257,136.084 15.18758,132.56548 22.451762,128.37494 c 7.264183,-4.19055 14.273085,-8.26233 15.575337,-9.04842 l 2.367728,-1.42923 31.87668,18.37218 31.876663,18.3722 0.0126,18.11996 c 0.007,9.96598 -0.0797,18.1103 -0.19254,18.09849 -0.11282,-0.0118 -1.55899,-0.82849 -3.21372,-1.81487 z"
       id="path5351"
       inkscape:connector-curvature="0" />
    <path
       style="opacity:1;fill:#b4b4b4;fill-opacity:1;stroke:#fafafa;stroke-width:5.2;stroke-linejoin:bevel;stroke-miterlimit:4;stroke-dasharray:none;stroke-opacity:1;paint-order:normal;stroke-linecap:round"
       d="m 60.001659,128.21702 c -6.769345,-3.913 -13.734046,-7.93788 -15.477116,-8.94421 l -3.169213,-1.82968 24.880047,-14.35855 c 13.684027,-7.8972 28.52578,-16.456477 32.981687,-19.020612 14.382266,-8.276247 31.001056,-17.941835 33.911226,-19.722979 1.55917,-0.954281 2.88229,-1.735053 2.94022,-1.735053 0.058,0 0.10537,8.17188 0.10537,18.159734 v 18.159734 l -31.55609,18.216946 c -17.355827,10.01933 -31.725299,18.2107 -31.932146,18.20306 -0.206847,-0.007 -5.914641,-3.21542 -12.683985,-7.12839 z"
       id="path5353"
       inkscape:connector-curvature="0" />
    <path
       style="opacity:1;fill:#b4b4b4;fill-opacity:1;stroke:#fafafa;stroke-width:5.2;stroke-linejoin:bevel;stroke-miterlimit:4;stroke-dasharray:none;stroke-opacity:1;paint-order:normal;stroke-linecap:round"
       d="m 89.068645,144.98524 c -8.533228,-4.91819 -15.51796,-9.00996 -15.521629,-9.09279 -0.0037,-0.0828 0.570715,-0.43115 1.276407,-0.77401 1.398855,-0.67962 22.42593,-12.71171 46.170707,-26.41975 35.57176,-20.535854 45.41121,-26.223204 46.20282,-26.70593 0.46238,-0.281967 0.93302,-0.513129 1.04583,-0.513689 0.11284,-5.47e-4 0.20312,8.029882 0.20065,17.845433 l -0.004,17.846456 -6.49133,3.73239 c -3.57024,2.05283 -17.91769,10.32989 -31.88323,18.39348 -13.96551,8.06359 -25.41186,14.65421 -25.43633,14.64584 -0.0245,-0.008 -7.026162,-4.03922 -15.559396,-8.95743 z"
       id="path5355"
       inkscape:connector-curvature="0" />
  </g>
</svg>
