<?xml version="1.0" encoding="UTF-8" standalone="no"?>
<!-- Created with Inkscape (http://www.inkscape.org/) -->

<svg
   xmlns:dc="http://purl.org/dc/elements/1.1/"
   xmlns:cc="http://creativecommons.org/ns#"
   xmlns:rdf="http://www.w3.org/1999/02/22-rdf-syntax-ns#"
   xmlns:svg="http://www.w3.org/2000/svg"
   xmlns="http://www.w3.org/2000/svg"
   xmlns:sodipodi="http://sodipodi.sourceforge.net/DTD/sodipodi-0.dtd"
   xmlns:inkscape="http://www.inkscape.org/namespaces/inkscape"
   width="208mm"
   height="240mm"
   viewBox="0 0 208 240"
   version="1.1"
   id="svg4712"
   inkscape:version="0.92.2 2405546, 2018-03-11"
   sodipodi:docname="pattern-buffer-v3.svg">
  <defs
     id="defs4706" />
  <sodipodi:namedview
     id="base"
     pagecolor="#000000"
     bordercolor="#666666"
     borderopacity="1.0"
     inkscape:pageopacity="0"
     inkscape:pageshadow="2"
     inkscape:zoom="0.5"
     inkscape:cx="295.67294"
     inkscape:cy="457.47194"
     inkscape:document-units="px"
     inkscape:current-layer="layer1"
     showgrid="true"
     inkscape:window-width="1920"
     inkscape:window-height="1012"
     inkscape:window-x="0"
     inkscape:window-y="0"
     inkscape:window-maximized="0"
     viewbox-x="0">
    <inkscape:grid
       type="axonomgrid"
       id="grid5261"
       units="mm"
       empspacing="6"
       spacingy="6"
       enabled="false" />
  </sodipodi:namedview>
  <metadata
     id="metadata4709">
    <rdf:RDF>
      <cc:Work
         rdf:about="">
        <dc:format>image/svg+xml</dc:format>
        <dc:type
           rdf:resource="http://purl.org/dc/dcmitype/StillImage" />
        <dc:title></dc:title>
      </cc:Work>
    </rdf:RDF>
  </metadata>
  <g
     inkscape:label="Layer 1"
     inkscape:groupmode="layer"
     id="layer1"
     transform="translate(0,-57)">
    <path
       style="opacity:1;fill:none;stroke:#fafafa;stroke-width:5.42133617;stroke-linecap:round;stroke-linejoin:bevel;stroke-miterlimit:4;stroke-dasharray:none;stroke-opacity:1;paint-order:normal"
       d="M 204.94085,234.72457 V 118.32914 L 104.13948,60.131352 3.3381502,118.32914 V 234.72457 L 104.13948,292.92226 Z"
       id="path5263"
       inkscape:connector-curvature="0" />
    <path
       style="opacity:1;fill:none;stroke:#fafafa;stroke-width:5.42133617;stroke-linecap:round;stroke-linejoin:bevel;stroke-miterlimit:4;stroke-dasharray:none;stroke-opacity:1;paint-order:normal"
       d="M 104.13948,292.92226 V 176.52688 l 100.80137,-58.19774"
       id="path5267"
       inkscape:connector-curvature="0" />
    <path
       style="opacity:1;fill:none;stroke:#fafafa;stroke-width:5.42133617;stroke-linecap:round;stroke-linejoin:bevel;stroke-miterlimit:4;stroke-dasharray:none;stroke-opacity:1;paint-order:normal"
       d="M 104.13948,176.52688 3.3381502,118.32914 v 0 0"
       id="path5269"
       inkscape:connector-curvature="0" />
    <path
       style="opacity:1;fill:none;stroke:#fafafa;stroke-width:5.42133617;stroke-linecap:round;stroke-linejoin:bevel;stroke-miterlimit:4;stroke-dasharray:none;stroke-opacity:1;paint-order:normal"
       d="M 137.73995,157.12766 V 273.52303"
       id="path5283"
       inkscape:connector-curvature="0" />
    <path
       style="opacity:1;fill:none;stroke:#fafafa;stroke-width:5.42133617;stroke-linecap:round;stroke-linejoin:bevel;stroke-miterlimit:4;stroke-dasharray:none;stroke-opacity:1;paint-order:normal"
       d="M 137.73995,273.52303 3.3381502,195.92612 v 0"
       id="path5285"
       inkscape:connector-curvature="0" />
    <path
       style="opacity:1;fill:none;stroke:#fafafa;stroke-width:5.42133617;stroke-linecap:round;stroke-linejoin:bevel;stroke-miterlimit:4;stroke-dasharray:none;stroke-opacity:1;paint-order:normal"
       d="M 104.13948,215.32534 3.3381502,157.12766 v 0 0 L 137.73995,79.53058"
       id="path5287"
       inkscape:connector-curvature="0" />
    <path
       style="opacity:1;fill:none;stroke:#fafafa;stroke-width:5.42133617;stroke-linecap:round;stroke-linejoin:bevel;stroke-miterlimit:4;stroke-dasharray:none;stroke-opacity:1;paint-order:normal"
       d="M 70.539049,157.12766 171.34039,98.929806"
       id="path5289"
       inkscape:connector-curvature="0" />
    <path
       style="opacity:1;fill:none;stroke:#fafafa;stroke-width:5.42133617;stroke-linecap:round;stroke-linejoin:bevel;stroke-miterlimit:4;stroke-dasharray:none;stroke-opacity:1;paint-order:normal"
       d="m 171.34039,98.929806 v 155.193984 0"
       id="path5291"
       inkscape:connector-curvature="0" />
    <path
       style="opacity:1;fill:none;stroke:#fafafa;stroke-width:5.42133617;stroke-linecap:round;stroke-linejoin:bevel;stroke-miterlimit:4;stroke-dasharray:none;stroke-opacity:1;paint-order:normal"
       d="M 104.13948,60.131352 V 98.929806"
       id="path5293"
       inkscape:connector-curvature="0" />
    <path
       style="opacity:1;fill:none;stroke:#fafafa;stroke-width:5.42133617;stroke-linecap:round;stroke-linejoin:bevel;stroke-miterlimit:4;stroke-dasharray:none;stroke-opacity:1;paint-order:normal"
       d="M 137.73995,79.530579 V 118.32914"
       id="path5295"
       inkscape:connector-curvature="0" />
    <path
       style="opacity:1;fill:none;stroke:#fafafa;stroke-width:5.42133617;stroke-linecap:round;stroke-linejoin:bevel;stroke-miterlimit:4;stroke-dasharray:none;stroke-opacity:1;paint-order:normal"
       d="M 171.34039,254.12379 137.73995,234.72457"
       id="path5297"
       inkscape:connector-curvature="0" />
    <path
       style="opacity:1;fill:none;stroke:#fafafa;stroke-width:5.42133617;stroke-linecap:round;stroke-linejoin:bevel;stroke-miterlimit:4;stroke-dasharray:none;stroke-opacity:1;paint-order:normal"
       d="M 204.94085,234.72457 171.34039,215.32534"
       id="path5299"
       inkscape:connector-curvature="0" />
    <path
       style="opacity:1;fill:none;stroke:#fafafa;stroke-width:5.42133617;stroke-linecap:round;stroke-linejoin:bevel;stroke-miterlimit:4;stroke-dasharray:none;stroke-opacity:1;paint-order:normal"
       d="M 3.3381502,234.72457 36.9386,215.32534"
       id="path5301"
       inkscape:connector-curvature="0" />
    <path
       style="opacity:1;fill:none;stroke:#fafafa;stroke-width:5.42133617;stroke-linecap:round;stroke-linejoin:bevel;stroke-miterlimit:4;stroke-dasharray:none;stroke-opacity:1;paint-order:normal"
       d="M 3.3381502,195.92612 36.9386,176.52688"
       id="path5303"
       inkscape:connector-curvature="0" />
    <path
       style="opacity:1;fill:#b4b4b4;fill-opacity:1;stroke:#fafafa;stroke-width:5.42133617;stroke-linecap:round;stroke-linejoin:bevel;stroke-miterlimit:4;stroke-dasharray:none;stroke-opacity:1;paint-order:normal"
       d="m 3.5763825,215.42804 c 0,-16.07695 0.059388,-18.86043 0.3995876,-18.72989 0.30616,0.11748 32.0007859,18.33536 32.3208669,18.57784 0.03889,0.0295 -7.018595,4.14077 -15.68329,9.13626 -8.664693,4.99551 -16.0427024,9.2664 -16.3955763,9.49089 l -0.6415882,0.40818 z"
       id="path5305"
       inkscape:connector-curvature="0" />
    <path
       style="opacity:1;fill:#b4b4b4;fill-opacity:1;stroke:#fafafa;stroke-width:5.42133617;stroke-linecap:round;stroke-linejoin:bevel;stroke-miterlimit:4;stroke-dasharray:none;stroke-opacity:1;paint-order:normal"
       d="m 3.5763825,176.54116 v -18.9524 l 16.0397265,9.26695 c 8.821849,5.09684 16.201105,9.35812 16.39834,9.46953 0.217288,0.12273 -5.952963,3.84987 -15.656659,9.45741 -8.808402,5.09017 -16.1876558,9.35745 -16.3983425,9.48287 -0.3190989,0.18996 -0.383065,-2.93676 -0.383065,-18.72436 z"
       id="path5307"
       inkscape:connector-curvature="0" />
    <path
       style="opacity:1;fill:#b4b4b4;fill-opacity:1;stroke:#fafafa;stroke-width:5.42133617;stroke-linecap:round;stroke-linejoin:bevel;stroke-miterlimit:4;stroke-dasharray:none;stroke-opacity:1;paint-order:normal"
       d="m 3.5763825,137.70432 v -18.95784 l 0.6415882,0.40497 c 0.3528739,0.22272 7.6990693,4.47452 16.3248773,9.44845 8.625809,4.97388 15.710503,9.06701 15.743767,9.09583 0.03326,0.0287 -4.522021,2.69604 -10.12285,5.92714 -5.600831,3.23112 -12.974241,7.48677 -16.3853567,9.457 l -6.2020258,3.58221 z"
       id="path5309"
       inkscape:connector-curvature="0" />
    <path
       style="opacity:1;fill:#b4b4b4;fill-opacity:1;stroke:#fafafa;stroke-width:5.42133617;stroke-linecap:round;stroke-linejoin:bevel;stroke-miterlimit:4;stroke-dasharray:none;stroke-opacity:1;paint-order:normal"
       d="m 36.785745,137.0424 c -0.15095,-0.14257 -7.331937,-4.33302 -15.957747,-9.3121 -8.62581,-4.97911 -15.8431392,-9.19886 -16.038514,-9.37721 -0.2725006,-0.24877 11.082986,-6.92544 48.76077,-28.669743 27.013795,-15.58995 49.404686,-28.52869 49.757566,-28.752758 l 0.6416,-0.407394 V 79.617487 98.711782 L 70.676965,117.93186 c -18.29985,10.57105 -33.349926,19.25374 -33.444612,19.29491 -0.09469,0.0411 -0.295658,-0.0419 -0.446608,-0.18437 z"
       id="path5311"
       inkscape:connector-curvature="0" />
    <path
       style="opacity:1;fill:#737373;fill-opacity:1;stroke:#fafafa;stroke-width:5.42133617;stroke-linecap:round;stroke-linejoin:bevel;stroke-miterlimit:4;stroke-dasharray:none;stroke-opacity:1;paint-order:normal"
       d="m 104.80486,79.567271 c 0,-10.299847 0.0962,-18.66937 0.21386,-18.598942 0.11764,0.07044 7.27136,4.19733 15.89717,9.170892 8.6258,4.973562 15.78481,9.137611 15.90888,9.253442 0.12408,0.115828 -6.74094,4.229375 -15.25557,9.141212 -8.51462,4.911839 -15.76986,9.117316 -16.12274,9.345503 l -0.6416,0.414888 z"
       id="path5313"
       inkscape:connector-curvature="0" />
    <path
       style="opacity:1;fill:#737373;fill-opacity:1;stroke:#fafafa;stroke-width:5.42133617;stroke-linecap:round;stroke-linejoin:bevel;stroke-miterlimit:4;stroke-dasharray:none;stroke-opacity:1;paint-order:normal"
       d="m 137.88235,98.946181 v -19.02348 l 0.92675,0.546555 c 0.5097,0.300607 7.89436,4.567054 16.41035,9.480993 8.51597,4.913939 15.38097,9.021869 15.25557,9.12873 -0.12544,0.106857 -7.22138,4.217671 -15.76877,9.135141 -8.54739,4.91746 -15.82943,9.12417 -16.18229,9.34824 l -0.64161,0.40741 z"
       id="path5315"
       inkscape:connector-curvature="0" />
    <path
       style="opacity:1;fill:#737373;fill-opacity:1;stroke:#fafafa;stroke-width:5.42133617;stroke-linecap:round;stroke-linejoin:bevel;stroke-miterlimit:4;stroke-dasharray:none;stroke-opacity:1;paint-order:normal"
       d="M 171.53014,118.34939 V 99.357742 l 1.36887,0.789928 c 0.75289,0.43447 8.13188,4.69663 16.39776,9.47147 l 15.02887,8.68153 -0.78577,0.48729 c -0.43215,0.26801 -7.3941,4.29807 -15.47098,8.9557 -8.0769,4.65761 -15.1023,8.7224 -15.61201,9.03286 l -0.92674,0.56447 z"
       id="path5317"
       inkscape:connector-curvature="0" />
    <path
       style="opacity:1;fill:#737373;fill-opacity:1;stroke:#fafafa;stroke-width:5.42133617;stroke-linecap:round;stroke-linejoin:bevel;stroke-miterlimit:4;stroke-dasharray:none;stroke-opacity:1;paint-order:normal"
       d="m 188.06889,224.65117 -16.39618,-9.46754 -0.0723,-38.36701 -0.0724,-38.36704 0.64262,-0.41806 c 1.74236,-1.1335 32.25881,-18.6896 32.34204,-18.60636 0.053,0.053 0.0639,25.8807 0.0243,57.39492 l -0.072,57.29862 z"
       id="path5319"
       inkscape:connector-curvature="0" />
    <path
       style="opacity:1;fill:#5e5e5e;fill-opacity:1;stroke:#fafafa;stroke-width:5.42133617;stroke-linecap:round;stroke-linejoin:bevel;stroke-miterlimit:4;stroke-dasharray:none;stroke-opacity:1;paint-order:normal"
       d="m 171.53014,234.95166 c 0,-10.59836 0.1084,-18.67672 0.24986,-18.62292 0.49173,0.18707 32.25861,18.58071 32.18742,18.63716 -0.0401,0.0318 -7.25848,4.1973 -16.04113,9.2569 -8.78263,5.0596 -16.06466,9.25497 -16.18228,9.32305 -0.11761,0.0682 -0.21387,-8.29932 -0.21387,-18.59419 z"
       id="path5321"
       inkscape:connector-curvature="0" />
    <path
       style="opacity:1;fill:#323232;fill-opacity:1;stroke:#fafafa;stroke-width:5.42133617;stroke-linecap:round;stroke-linejoin:bevel;stroke-miterlimit:4;stroke-dasharray:none;stroke-opacity:1;paint-order:normal"
       d="m 172.51491,251.56562 c -0.2182,-0.56866 -0.0191,-33.20885 0.20394,-33.43169 0.1705,-0.17033 6.53673,3.43177 23.9563,13.55479 3.08672,1.79376 5.5889,3.27751 5.56045,3.2972 -0.20255,0.13998 -28.41907,16.35409 -28.92749,16.62262 -0.51696,0.27305 -0.67523,0.26448 -0.7932,-0.0428 z"
       id="path5331"
       inkscape:connector-curvature="0" />
    <path
       style="opacity:1;fill:#323232;fill-opacity:1;stroke:#fafafa;stroke-width:5.42133617;stroke-linecap:round;stroke-linejoin:bevel;stroke-miterlimit:4;stroke-dasharray:none;stroke-opacity:1;paint-order:normal"
       d="m 137.88235,254.08802 v -18.95828 l 4.91886,2.84493 c 2.70535,1.56472 10.08091,5.82117 16.39009,9.45879 6.30918,3.63762 11.37772,6.70252 11.26344,6.81088 -0.1911,0.18119 -30.47364,17.69027 -31.93078,18.4621 l -0.64161,0.33984 z"
       id="path5333"
       inkscape:connector-curvature="0" />
    <path
       style="opacity:1;fill:#323232;fill-opacity:1;stroke:#fafafa;stroke-width:5.42133617;stroke-linecap:round;stroke-linejoin:bevel;stroke-miterlimit:4;stroke-dasharray:none;stroke-opacity:1;paint-order:normal"
       d="m 104.51972,273.56379 c 0,-10.35911 0.10465,-18.79197 0.23263,-18.73971 1.37202,0.5606 32.21078,18.66485 32.05602,18.81886 -0.11506,0.11448 -6.68925,3.94934 -14.6093,8.52192 -7.92005,4.57259 -15.13795,8.74576 -16.03972,9.27372 l -1.63963,0.95996 z"
       id="path5335"
       inkscape:connector-curvature="0" />
    <path
       style="opacity:1;fill:#323232;fill-opacity:1;stroke:#fafafa;stroke-width:5.42133617;stroke-linecap:round;stroke-linejoin:bevel;stroke-miterlimit:4;stroke-dasharray:none;stroke-opacity:1;paint-order:normal"
       d="m 53.957655,263.63535 c -27.103396,-15.65738 -49.2849902,-28.57237 -49.2924363,-28.7 -0.00747,-0.12761 6.6416023,-4.08914 14.7756623,-8.80337 8.13406,-4.71423 15.443496,-8.97443 16.24319,-9.46708 l 1.453987,-0.89573 33.423983,19.28984 33.423979,19.28982 -0.16088,0.81982 c -0.0885,0.45089 -0.16087,8.95195 -0.16087,18.89123 0,9.93929 -0.0961,18.06512 -0.21387,18.05744 -0.11763,-0.007 -22.389353,-12.82459 -49.492745,-28.48197 z"
       id="path5337"
       inkscape:connector-curvature="0" />
    <path
       style="opacity:1;fill:#737373;fill-opacity:1;stroke:#fafafa;stroke-width:5.42133617;stroke-linecap:round;stroke-linejoin:bevel;stroke-miterlimit:4;stroke-dasharray:none;stroke-opacity:1;paint-order:normal"
       d="m 166.66418,250.82172 c -1.97054,-1.20271 -9.25162,-5.45642 -16.1802,-9.45267 l -12.5974,-7.26591 -0.002,-38.36099 -0.002,-38.36099 16.32488,-9.42818 16.32487,-9.42819 0.1426,38.80693 c 0.16461,44.80675 0.0738,75.74644 -0.22193,75.70537 -0.1132,-0.0157 -1.81807,-1.01264 -3.78861,-2.21537 z"
       id="path5341"
       inkscape:connector-curvature="0" />
    <path
       style="opacity:1;fill:#737373;fill-opacity:1;stroke:#fafafa;stroke-width:5.42133617;stroke-linecap:round;stroke-linejoin:bevel;stroke-miterlimit:4;stroke-dasharray:none;stroke-opacity:1;paint-order:normal"
       d="m 131.03875,269.08983 c -4.83273,-2.90068 -20.70399,-12.17606 -25.30815,-14.79039 l -1.21294,-0.68872 0.0723,-38.52598 0.0724,-38.52598 16.11101,-9.30337 16.11101,-9.30337 0.0727,28.7596 c 0.04,15.81778 0.04,41.61324 0,57.32323 l -0.0727,28.56363 z"
       id="path5343"
       inkscape:connector-curvature="0" />
    <path
       style="opacity:1;fill:#323232;fill-opacity:1;stroke:#fafafa;stroke-width:5.42133617;stroke-linecap:round;stroke-linejoin:bevel;stroke-miterlimit:4;stroke-dasharray:none;stroke-opacity:1;paint-order:normal"
       d="M 74.864056,236.49475 C 59.102352,227.39803 44.025007,218.69897 41.358849,217.16352 38.69269,215.62808 31.186099,211.2966 24.677533,207.53806 18.16897,203.77951 11.077021,199.70187 8.9176474,198.47668 c -2.1593713,-1.22521 -3.9802669,-2.31523 -4.0464332,-2.42231 -0.066162,-0.10701 2.4063394,-1.65585 5.4944598,-3.44176 12.969342,-7.50042 20.905488,-12.15832 23.65734,-13.88507 l 2.92959,-1.83828 1.205094,0.6787 c 6.12402,3.44891 64.879252,37.4418 65.152202,37.69385 0.28236,0.26074 0.34292,4.3073 0.28515,19.05174 l -0.0734,18.72072 z"
       id="path5349"
       inkscape:connector-curvature="0" />
    <path
       style="opacity:1;fill:#323232;fill-opacity:1;stroke:#fafafa;stroke-width:5.42133617;stroke-linecap:round;stroke-linejoin:bevel;stroke-miterlimit:4;stroke-dasharray:none;stroke-opacity:1;paint-order:normal"
       d="M 100.09988,212.37066 C 96.08913,209.97986 58.711386,188.3508 28.527067,170.9542 15.666772,163.54223 5.043405,157.38418 4.9195858,157.26965 c -0.1238203,-0.11452 5.9712782,-3.7828 13.5446572,-8.15171 7.57338,-4.36892 14.880614,-8.61401 16.238296,-9.43356 l 2.468509,-1.49007 33.233501,19.15419 33.233481,19.1542 0.0131,18.89123 c 0.007,10.39018 -0.0831,18.88116 -0.20073,18.86884 -0.11763,-0.0123 -1.62535,-0.86375 -3.35051,-1.89211 z"
       id="path5351"
       inkscape:connector-curvature="0" />
    <path
       style="opacity:1;fill:#b4b4b4;fill-opacity:1;stroke:#fafafa;stroke-width:5.42133617;stroke-linecap:round;stroke-linejoin:bevel;stroke-miterlimit:4;stroke-dasharray:none;stroke-opacity:1;paint-order:normal"
       d="m 57.612439,148.9533 c -7.05748,-4.07956 -14.318631,-8.27576 -16.135895,-9.32492 l -3.304108,-1.90756 25.939057,-14.96976 c 14.266483,-8.23338 29.73997,-17.15703 34.385542,-19.83033 14.994445,-8.628534 32.320615,-18.705534 35.354655,-20.562492 1.62553,-0.9949 3.00497,-1.808905 3.06537,-1.808905 0.0604,0 0.10985,8.519713 0.10985,18.9327 v 18.932797 l -32.89927,18.99241 c -18.094571,10.4458 -33.075675,18.98583 -33.291326,18.97786 -0.215652,-0.007 -6.166396,-3.35228 -13.223875,-7.4318 z"
       id="path5353"
       inkscape:connector-curvature="0" />
    <path
       style="opacity:1;fill:#b4b4b4;fill-opacity:1;stroke:#fafafa;stroke-width:5.42133617;stroke-linecap:round;stroke-linejoin:bevel;stroke-miterlimit:4;stroke-dasharray:none;stroke-opacity:1;paint-order:normal"
       d="m 87.916652,166.43524 c -8.896443,-5.12752 -16.178477,-9.39345 -16.182302,-9.47981 -0.0039,-0.0864 0.595007,-0.4495 1.330737,-0.80696 1.458397,-0.70854 23.380482,-13.25278 48.135953,-27.5443 37.08586,-21.41008 47.34412,-27.33954 48.16942,-27.84282 0.48207,-0.29397 0.97275,-0.53497 1.09036,-0.53555 0.11764,-5.7e-4 0.21176,8.37172 0.20918,18.60512 l -0.004,18.60615 -6.76763,3.89125 c -3.72222,2.14021 -18.68036,10.76958 -33.24034,19.17639 -14.55995,8.40682 -26.49351,15.27796 -26.51902,15.26923 -0.0255,-0.008 -7.32523,-4.21114 -16.221679,-9.3387 z"
       id="path5355"
       inkscape:connector-curvature="0" />
  </g>
</svg>
