<?xml version="1.0" encoding="UTF-8" standalone="no"?>
<!-- Created with Inkscape (http://www.inkscape.org/) -->

<svg
   xmlns:dc="http://purl.org/dc/elements/1.1/"
   xmlns:cc="http://creativecommons.org/ns#"
   xmlns:rdf="http://www.w3.org/1999/02/22-rdf-syntax-ns#"
   xmlns:svg="http://www.w3.org/2000/svg"
   xmlns="http://www.w3.org/2000/svg"
   xmlns:sodipodi="http://sodipodi.sourceforge.net/DTD/sodipodi-0.dtd"
   xmlns:inkscape="http://www.inkscape.org/namespaces/inkscape"
   width="208mm"
   height="240mm"
   viewBox="0 0 208 240"
   version="1.1"
   id="svg4712"
   inkscape:version="0.92.2 2405546, 2018-03-11"
   sodipodi:docname="pattern-buffer-v3_2.svg">
  <defs
     id="defs4706" />
  <sodipodi:namedview
     id="base"
     pagecolor="#000000"
     bordercolor="#666666"
     borderopacity="1.0"
     inkscape:pageopacity="0"
     inkscape:pageshadow="2"
     inkscape:zoom="0.5"
     inkscape:cx="548.69979"
     inkscape:cy="539.27872"
     inkscape:document-units="px"
     inkscape:current-layer="layer1"
     showgrid="true"
     inkscape:window-width="1920"
     inkscape:window-height="1012"
     inkscape:window-x="0"
     inkscape:window-y="0"
     inkscape:window-maximized="0"
     viewbox-x="0">
    <inkscape:grid
       type="axonomgrid"
       id="grid5261"
       units="mm"
       empspacing="6"
       spacingy="6"
       enabled="false" />
  </sodipodi:namedview>
  <metadata
     id="metadata4709">
    <rdf:RDF>
      <cc:Work
         rdf:about="">
        <dc:format>image/svg+xml</dc:format>
        <dc:type
           rdf:resource="http://purl.org/dc/dcmitype/StillImage" />
        <dc:title></dc:title>
      </cc:Work>
    </rdf:RDF>
  </metadata>
  <g
     inkscape:label="Layer 1"
     inkscape:groupmode="layer"
     id="layer1"
     transform="translate(0,-57)">
    <path
       style="opacity:1;fill:none;stroke:#fafafa;stroke-width:7.34204912;stroke-linecap:round;stroke-linejoin:bevel;stroke-miterlimit:4;stroke-dasharray:none;stroke-opacity:1;paint-order:normal"
       d="M 204.16185,234.71634 V 119.36233 L 104.26238,61.685239 4.3629324,119.36233 v 115.35401 l 99.8994476,57.67698 z"
       id="path5263"
       inkscape:connector-curvature="0" />
    <path
       style="opacity:1;fill:none;stroke:#fafafa;stroke-width:7.34204912;stroke-linecap:round;stroke-linejoin:bevel;stroke-miterlimit:4;stroke-dasharray:none;stroke-opacity:1;paint-order:normal"
       d="M 104.26238,292.39332 V 177.03936 l 99.89947,-57.67703"
       id="path5267"
       inkscape:connector-curvature="0" />
    <path
       style="opacity:1;fill:none;stroke:#fafafa;stroke-width:7.34204912;stroke-linecap:round;stroke-linejoin:bevel;stroke-miterlimit:4;stroke-dasharray:none;stroke-opacity:1;paint-order:normal"
       d="M 104.26238,177.03936 4.3629324,119.36233 v 0 0"
       id="path5269"
       inkscape:connector-curvature="0" />
    <path
       style="opacity:1;fill:none;stroke:#fafafa;stroke-width:7.34204912;stroke-linecap:round;stroke-linejoin:bevel;stroke-miterlimit:4;stroke-dasharray:none;stroke-opacity:1;paint-order:normal"
       d="M 137.56222,157.81371 V 273.16766"
       id="path5283"
       inkscape:connector-curvature="0" />
    <path
       style="opacity:1;fill:none;stroke:#fafafa;stroke-width:7.34204912;stroke-linecap:round;stroke-linejoin:bevel;stroke-miterlimit:4;stroke-dasharray:none;stroke-opacity:1;paint-order:normal"
       d="M 137.56222,273.16766 4.3629324,196.26503 v 0"
       id="path5285"
       inkscape:connector-curvature="0" />
    <path
       style="opacity:1;fill:none;stroke:#fafafa;stroke-width:7.34204912;stroke-linecap:round;stroke-linejoin:bevel;stroke-miterlimit:4;stroke-dasharray:none;stroke-opacity:1;paint-order:normal"
       d="M 104.26238,215.49068 4.3629324,157.81371 v 0 0 L 137.56222,80.910898"
       id="path5287"
       inkscape:connector-curvature="0" />
    <path
       style="opacity:1;fill:none;stroke:#fafafa;stroke-width:7.34204912;stroke-linecap:round;stroke-linejoin:bevel;stroke-miterlimit:4;stroke-dasharray:none;stroke-opacity:1;paint-order:normal"
       d="m 70.96257,157.81371 99.89946,-57.67716"
       id="path5289"
       inkscape:connector-curvature="0" />
    <path
       style="opacity:1;fill:none;stroke:#fafafa;stroke-width:7.34204912;stroke-linecap:round;stroke-linejoin:bevel;stroke-miterlimit:4;stroke-dasharray:none;stroke-opacity:1;paint-order:normal"
       d="m 170.86203,100.13655 v 153.80544 0"
       id="path5291"
       inkscape:connector-curvature="0" />
    <path
       style="opacity:1;fill:none;stroke:#fafafa;stroke-width:7.34204912;stroke-linecap:round;stroke-linejoin:bevel;stroke-miterlimit:4;stroke-dasharray:none;stroke-opacity:1;paint-order:normal"
       d="M 104.26238,61.685239 V 100.13655"
       id="path5293"
       inkscape:connector-curvature="0" />
    <path
       style="opacity:1;fill:none;stroke:#fafafa;stroke-width:7.34204912;stroke-linecap:round;stroke-linejoin:bevel;stroke-miterlimit:4;stroke-dasharray:none;stroke-opacity:1;paint-order:normal"
       d="M 137.56222,80.910897 V 119.36233"
       id="path5295"
       inkscape:connector-curvature="0" />
    <path
       style="opacity:1;fill:none;stroke:#fafafa;stroke-width:7.34204912;stroke-linecap:round;stroke-linejoin:bevel;stroke-miterlimit:4;stroke-dasharray:none;stroke-opacity:1;paint-order:normal"
       d="M 170.86203,253.94199 137.56222,234.71634"
       id="path5297"
       inkscape:connector-curvature="0" />
    <path
       style="opacity:1;fill:none;stroke:#fafafa;stroke-width:7.34204912;stroke-linecap:round;stroke-linejoin:bevel;stroke-miterlimit:4;stroke-dasharray:none;stroke-opacity:1;paint-order:normal"
       d="M 204.16185,234.71634 170.86203,215.49068"
       id="path5299"
       inkscape:connector-curvature="0" />
    <path
       style="opacity:1;fill:none;stroke:#fafafa;stroke-width:7.34204912;stroke-linecap:round;stroke-linejoin:bevel;stroke-miterlimit:4;stroke-dasharray:none;stroke-opacity:1;paint-order:normal"
       d="M 4.3629324,234.71634 37.662752,215.49068"
       id="path5301"
       inkscape:connector-curvature="0" />
    <path
       style="opacity:1;fill:none;stroke:#fafafa;stroke-width:7.34204912;stroke-linecap:round;stroke-linejoin:bevel;stroke-miterlimit:4;stroke-dasharray:none;stroke-opacity:1;paint-order:normal"
       d="M 4.3629324,196.26503 37.662752,177.03936"
       id="path5303"
       inkscape:connector-curvature="0" />
    <path
       style="opacity:1;fill:#b4b4b4;fill-opacity:1;stroke:#fafafa;stroke-width:7.34204912;stroke-linecap:round;stroke-linejoin:bevel;stroke-miterlimit:4;stroke-dasharray:none;stroke-opacity:1;paint-order:normal"
       d="m 4.5990331,215.59246 c 0,-15.9331 0.058857,-18.69168 0.3960125,-18.56231 0.3034207,0.11643 31.7144684,18.17131 32.0316854,18.41162 0.03854,0.0292 -6.955798,4.10372 -15.542968,9.05452 -8.587168,4.95081 -15.8991654,9.18349 -16.2488821,9.40597 l -0.6358478,0.40453 z"
       id="path5305"
       inkscape:connector-curvature="0" />
    <path
       style="opacity:1;fill:#b4b4b4;fill-opacity:1;stroke:#fafafa;stroke-width:7.34204912;stroke-linecap:round;stroke-linejoin:bevel;stroke-miterlimit:4;stroke-dasharray:none;stroke-opacity:1;paint-order:normal"
       d="m 4.5990331,177.05351 v -18.78283 l 15.8962159,9.18404 c 8.742918,5.05124 16.05615,9.27439 16.251621,9.3848 0.215344,0.12164 -5.899701,3.81543 -15.516576,9.3728 -8.729591,5.04462 -16.0428216,9.27372 -16.2516232,9.39802 -0.3162439,0.18826 -0.3796377,-2.91048 -0.3796377,-18.55683 z"
       id="path5307"
       inkscape:connector-curvature="0" />
    <path
       style="opacity:1;fill:#b4b4b4;fill-opacity:1;stroke:#fafafa;stroke-width:7.34204912;stroke-linecap:round;stroke-linejoin:bevel;stroke-miterlimit:4;stroke-dasharray:none;stroke-opacity:1;paint-order:normal"
       d="m 4.5990331,138.56415 v -18.78822 l 0.6358478,0.40135 c 0.3497167,0.22073 7.6301851,4.43449 16.1788161,9.36391 8.548631,4.92938 15.569937,8.98589 15.602904,9.01445 0.03296,0.0284 -4.481562,2.67192 -10.032279,5.87411 -5.550719,3.20221 -12.858158,7.41978 -16.238754,9.37238 l -6.1465349,3.55016 z"
       id="path5309"
       inkscape:connector-curvature="0" />
    <path
       style="opacity:1;fill:#b4b4b4;fill-opacity:1;stroke:#fafafa;stroke-width:7.34204912;stroke-linecap:round;stroke-linejoin:bevel;stroke-miterlimit:4;stroke-dasharray:none;stroke-opacity:1;paint-order:normal"
       d="m 37.511265,137.90816 c -0.1496,-0.1413 -7.266337,-4.29426 -15.81497,-9.22879 C 13.147662,123.74481 5.9949075,119.56282 5.8012808,119.38606 5.5312183,119.13952 16.785105,112.52259 54.125778,90.972826 80.897874,75.522362 103.08844,62.699388 103.43816,62.477325 l 0.63586,-0.403749 V 80.997027 99.920481 L 71.099252,118.9686 c -18.136117,10.47647 -33.051536,19.08147 -33.145375,19.12228 -0.09384,0.0407 -0.293013,-0.0415 -0.442612,-0.18272 z"
       id="path5311"
       inkscape:connector-curvature="0" />
    <path
       style="opacity:1;fill:#737373;fill-opacity:1;stroke:#fafafa;stroke-width:7.34204912;stroke-linecap:round;stroke-linejoin:bevel;stroke-miterlimit:4;stroke-dasharray:none;stroke-opacity:1;paint-order:normal"
       d="m 104.9218,80.94726 c 0,-10.207692 0.0953,-18.502331 0.21195,-18.432533 0.11659,0.06981 7.2063,4.159776 15.75493,9.088838 8.54863,4.929063 15.64358,9.055855 15.76654,9.17065 0.12297,0.114791 -6.68062,4.191534 -15.11907,9.059423 -8.43844,4.867892 -15.62876,9.035742 -15.97849,9.261887 l -0.63586,0.411176 z"
       id="path5313"
       inkscape:connector-curvature="0" />
    <path
       style="opacity:1;fill:#737373;fill-opacity:1;stroke:#fafafa;stroke-width:7.34204912;stroke-linecap:round;stroke-linejoin:bevel;stroke-miterlimit:4;stroke-dasharray:none;stroke-opacity:1;paint-order:normal"
       d="M 137.70334,100.15278 V 81.29951 l 0.91846,0.541665 c 0.50514,0.297918 7.82373,4.526192 16.26352,9.396165 8.43978,4.869973 15.24336,8.94115 15.11908,9.04705 -0.12432,0.1059 -7.15677,4.17995 -15.62769,9.05342 -8.47091,4.87346 -15.6878,9.04253 -16.0375,9.2646 l -0.63587,0.40376 z"
       id="path5315"
       inkscape:connector-curvature="0" />
    <path
       style="opacity:1;fill:#737373;fill-opacity:1;stroke:#fafafa;stroke-width:7.34204912;stroke-linecap:round;stroke-linejoin:bevel;stroke-miterlimit:4;stroke-dasharray:none;stroke-opacity:1;paint-order:normal"
       d="m 171.05008,119.3824 v -18.82174 l 1.35662,0.78287 c 0.74615,0.43058 8.05912,4.65461 16.25105,9.38673 l 14.8944,8.60385 -0.77874,0.48293 c -0.42828,0.26561 -7.32794,4.25962 -15.33256,8.87557 -8.00463,4.61594 -14.96717,8.64436 -15.47232,8.95204 l -0.91845,0.55942 z"
       id="path5317"
       inkscape:connector-curvature="0" />
    <path
       style="opacity:1;fill:#737373;fill-opacity:1;stroke:#fafafa;stroke-width:7.34204912;stroke-linecap:round;stroke-linejoin:bevel;stroke-miterlimit:4;stroke-dasharray:none;stroke-opacity:1;paint-order:normal"
       d="m 187.44085,224.73307 -16.24948,-9.38283 -0.0716,-38.02373 -0.0718,-38.02376 0.63687,-0.41432 c 1.72677,-1.12336 31.97018,-18.52238 32.05267,-18.43989 0.0525,0.0525 0.0633,25.64914 0.0241,56.8814 l -0.0714,56.78595 z"
       id="path5319"
       inkscape:connector-curvature="0" />
    <path
       style="opacity:1;fill:#5e5e5e;fill-opacity:1;stroke:#fafafa;stroke-width:7.34204912;stroke-linecap:round;stroke-linejoin:bevel;stroke-miterlimit:4;stroke-dasharray:none;stroke-opacity:1;paint-order:normal"
       d="m 171.05008,234.9414 c 0,-10.50353 0.10743,-18.50962 0.24762,-18.4563 0.48733,0.1854 31.96999,18.41447 31.89943,18.47041 -0.0397,0.0315 -7.19353,4.15975 -15.8976,9.17408 -8.70405,5.01433 -15.92093,9.17216 -16.0375,9.23963 -0.11655,0.0676 -0.21195,-8.22506 -0.21195,-18.42782 z"
       id="path5321"
       inkscape:connector-curvature="0" />
    <path
       style="opacity:1;fill:#323232;fill-opacity:1;stroke:#fafafa;stroke-width:7.34204912;stroke-linecap:round;stroke-linejoin:bevel;stroke-miterlimit:4;stroke-dasharray:none;stroke-opacity:1;paint-order:normal"
       d="m 172.02604,251.40671 c -0.21625,-0.56357 -0.0189,-32.91172 0.20211,-33.13257 0.16898,-0.1688 6.47825,3.40107 23.74196,13.43351 3.0591,1.77771 5.53889,3.24819 5.5107,3.2677 -0.20074,0.13873 -28.1648,16.20777 -28.66867,16.4739 -0.51233,0.2706 -0.66919,0.26211 -0.7861,-0.0424 z"
       id="path5331"
       inkscape:connector-curvature="0" />
    <path
       style="opacity:1;fill:#323232;fill-opacity:1;stroke:#fafafa;stroke-width:7.34204912;stroke-linecap:round;stroke-linejoin:bevel;stroke-miterlimit:4;stroke-dasharray:none;stroke-opacity:1;paint-order:normal"
       d="m 137.70334,253.90654 v -18.78865 l 4.87485,2.81947 c 2.68115,1.55072 9.99072,5.76909 16.24345,9.37416 6.25273,3.60508 11.27592,6.64255 11.16266,6.74994 -0.18939,0.17957 -30.20099,17.532 -31.64509,18.29692 l -0.63587,0.3368 z"
       id="path5333"
       inkscape:connector-curvature="0" />
    <path
       style="opacity:1;fill:#323232;fill-opacity:1;stroke:#fafafa;stroke-width:7.34204912;stroke-linecap:round;stroke-linejoin:bevel;stroke-miterlimit:4;stroke-dasharray:none;stroke-opacity:1;paint-order:normal"
       d="m 104.63921,273.20806 c 0,-10.26643 0.10372,-18.62384 0.23055,-18.57204 1.35975,0.55558 31.92259,18.49785 31.76921,18.65048 -0.11403,0.11346 -6.6294,3.914 -14.47859,8.44567 -7.84918,4.53168 -15.0025,8.66751 -15.89621,9.19075 l -1.62496,0.95137 z"
       id="path5335"
       inkscape:connector-curvature="0" />
    <path
       style="opacity:1;fill:#323232;fill-opacity:1;stroke:#fafafa;stroke-width:7.34204912;stroke-linecap:round;stroke-linejoin:bevel;stroke-miterlimit:4;stroke-dasharray:none;stroke-opacity:1;paint-order:normal"
       d="M 54.529534,263.36845 C 27.668638,247.85116 5.6855068,235.05172 5.6781273,234.92524 c -0.0074,-0.12647 6.5821787,-4.05256 14.6434617,-8.72461 8.061283,-4.67205 15.30532,-8.89413 16.097859,-9.38237 l 1.440977,-0.88772 33.124932,19.11725 33.124933,19.11723 -0.15944,0.81248 c -0.0877,0.44686 -0.15943,8.87186 -0.15943,18.72221 0,9.85036 -0.0952,17.90349 -0.21196,17.89588 -0.11658,-0.007 -22.189034,-12.70985 -49.049926,-28.22714 z"
       id="path5337"
       inkscape:connector-curvature="0" />
    <path
       style="opacity:1;fill:#737373;fill-opacity:1;stroke:#fafafa;stroke-width:7.34204912;stroke-linecap:round;stroke-linejoin:bevel;stroke-miterlimit:4;stroke-dasharray:none;stroke-opacity:1;paint-order:normal"
       d="m 166.22765,250.66947 c -1.9529,-1.19195 -9.16884,-5.4076 -16.03543,-9.3681 l -12.48469,-7.2009 -0.002,-38.01776 -0.002,-38.01777 16.17882,-9.34382 16.17881,-9.34384 0.14132,38.45972 c 0.16314,44.40585 0.0731,75.06872 -0.21995,75.02802 -0.11218,-0.0156 -1.8018,-1.00358 -3.75471,-2.19555 z"
       id="path5341"
       inkscape:connector-curvature="0" />
    <path
       style="opacity:1;fill:#737373;fill-opacity:1;stroke:#fafafa;stroke-width:7.34204912;stroke-linecap:round;stroke-linejoin:bevel;stroke-miterlimit:4;stroke-dasharray:none;stroke-opacity:1;paint-order:normal"
       d="m 130.92097,268.77413 c -4.78949,-2.87473 -20.51874,-12.06712 -25.08171,-14.65806 l -1.20209,-0.68256 0.0717,-38.18128 0.0717,-38.18128 15.96686,-9.22013 15.96686,-9.22013 0.0721,28.50228 c 0.0396,15.67626 0.0396,41.24092 0,56.81035 l -0.0721,28.30807 z"
       id="path5343"
       inkscape:connector-curvature="0" />
    <path
       style="opacity:1;fill:#323232;fill-opacity:1;stroke:#fafafa;stroke-width:7.34204912;stroke-linecap:round;stroke-linejoin:bevel;stroke-miterlimit:4;stroke-dasharray:none;stroke-opacity:1;paint-order:normal"
       d="M 75.248881,236.47068 C 59.6282,227.45535 44.685755,218.83413 42.043452,217.31241 39.401148,215.79071 31.96172,211.49799 25.511388,207.77308 19.061058,204.04815 12.032562,200.007 9.8925083,198.79277 7.7524576,197.57852 5.947854,196.49825 5.8822797,196.39213 c -0.06557,-0.10605 2.3848093,-1.64103 5.4453003,-3.41096 12.853302,-7.43332 20.718442,-12.04954 23.445672,-13.76084 l 2.903379,-1.82183 1.194312,0.67262 c 6.069227,3.41806 64.298767,37.1068 64.569277,37.3566 0.27983,0.25841 0.33985,4.26876 0.2826,18.88128 l -0.0727,18.55322 z"
       id="path5349"
       inkscape:connector-curvature="0" />
    <path
       style="opacity:1;fill:#323232;fill-opacity:1;stroke:#fafafa;stroke-width:7.34204912;stroke-linecap:round;stroke-linejoin:bevel;stroke-miterlimit:4;stroke-dasharray:none;stroke-opacity:1;paint-order:normal"
       d="M 100.25891,212.56244 C 96.284049,210.19303 59.240732,188.75749 29.326479,171.51654 16.581248,164.17089 6.0529299,158.06793 5.9302185,157.95443 c -0.1227124,-0.1135 5.9178525,-3.74896 13.4234705,-8.07878 7.50562,-4.32983 14.747474,-8.53694 16.093009,-9.34915 l 2.446422,-1.47674 32.936154,18.98281 32.936136,18.98283 0.013,18.7222 c 0.007,10.29722 -0.0824,18.71223 -0.19894,18.70002 -0.11658,-0.0122 -1.61081,-0.85602 -3.32054,-1.87518 z"
       id="path5351"
       inkscape:connector-curvature="0" />
    <path
       style="opacity:1;fill:#b4b4b4;fill-opacity:1;stroke:#fafafa;stroke-width:7.34204912;stroke-linecap:round;stroke-linejoin:bevel;stroke-miterlimit:4;stroke-dasharray:none;stroke-opacity:1;paint-order:normal"
       d="M 58.151618,149.71249 C 51.157282,145.66943 43.961099,141.51077 42.160094,140.471 l -3.274545,-1.89049 25.706974,-14.83583 c 14.138838,-8.15971 29.47388,-17.00352 34.077887,-19.6529 14.86029,-8.551342 32.03144,-18.538181 35.03834,-20.378524 1.61098,-0.985998 2.97808,-1.79272 3.03794,-1.79272 0.0599,0 0.10887,8.443485 0.10887,18.763304 v 18.76341 l -32.60492,18.82248 c -17.932678,10.35234 -32.779743,18.81596 -32.993464,18.80806 -0.213723,-0.007 -6.111224,-3.32228 -13.105558,-7.3653 z"
       id="path5353"
       inkscape:connector-curvature="0" />
    <path
       style="opacity:1;fill:#b4b4b4;fill-opacity:1;stroke:#fafafa;stroke-width:7.34204912;stroke-linecap:round;stroke-linejoin:bevel;stroke-miterlimit:4;stroke-dasharray:none;stroke-opacity:1;paint-order:normal"
       d="m 88.184692,167.03801 c -8.816844,-5.08164 -16.033724,-9.3094 -16.037515,-9.39499 -0.0039,-0.0856 0.589683,-0.44548 1.31883,-0.79974 1.445349,-0.7022 23.171292,-13.13421 47.705273,-27.29786 36.75405,-21.21851 46.92052,-27.09492 47.73844,-27.5937 0.47776,-0.29134 0.96405,-0.53019 1.08061,-0.53076 0.11658,-5.7e-4 0.20986,8.29682 0.2073,18.43866 l -0.004,18.43967 -6.70708,3.85644 c -3.68892,2.12106 -18.51322,10.67322 -32.94293,19.00481 -14.42968,8.33161 -26.25647,15.14127 -26.28175,15.13262 -0.0253,-0.008 -7.259695,-4.17347 -16.076545,-9.25515 z"
       id="path5355"
       inkscape:connector-curvature="0" />
  </g>
</svg>
