<?xml version="1.0" encoding="UTF-8" standalone="no"?>
<!-- Created with Inkscape (http://www.inkscape.org/) -->

<svg
   xmlns:dc="http://purl.org/dc/elements/1.1/"
   xmlns:cc="http://creativecommons.org/ns#"
   xmlns:rdf="http://www.w3.org/1999/02/22-rdf-syntax-ns#"
   xmlns:svg="http://www.w3.org/2000/svg"
   xmlns="http://www.w3.org/2000/svg"
   xmlns:sodipodi="http://sodipodi.sourceforge.net/DTD/sodipodi-0.dtd"
   xmlns:inkscape="http://www.inkscape.org/namespaces/inkscape"
   width="2000"
   height="2300"
   viewBox="0 0 529.16667 608.54168"
   version="1.1"
   id="svg8"
   inkscape:version="0.92.2 2405546, 2018-03-11"
   sodipodi:docname="pattern-buffer-v2_1.svg">
  <defs
     id="defs2" />
  <sodipodi:namedview
     id="base"
     pagecolor="#ffffff"
     bordercolor="#666666"
     borderopacity="1.0"
     inkscape:pageopacity="0.0"
     inkscape:pageshadow="2"
     inkscape:zoom="0.175"
     inkscape:cx="1296.1864"
     inkscape:cy="1548.1955"
     inkscape:document-units="mm"
     inkscape:current-layer="layer1"
     showgrid="false"
     inkscape:window-width="1326"
     inkscape:window-height="1035"
     inkscape:window-x="580"
     inkscape:window-y="12"
     inkscape:window-maximized="0"
     units="px"
     inkscape:pagecheckerboard="true" />
  <metadata
     id="metadata5">
    <rdf:RDF>
      <cc:Work
         rdf:about="">
        <dc:format>image/svg+xml</dc:format>
        <dc:type
           rdf:resource="http://purl.org/dc/dcmitype/StillImage" />
        <dc:title></dc:title>
      </cc:Work>
    </rdf:RDF>
  </metadata>
  <g
     inkscape:label="Layer 1"
     inkscape:groupmode="layer"
     id="layer1"
     transform="translate(0,311.54168)">
    <g
       id="layer1-6"
       inkscape:label="Layer 1"
       transform="matrix(2.6587783,0,0,2.6587783,-13.58126,-410.87823)"
       style="stroke-width:3.17499995;stroke-miterlimit:4;stroke-dasharray:none"
       inkscape:export-xdpi="160.22163"
       inkscape:export-ydpi="160.22163">
      <path
         inkscape:connector-curvature="0"
         id="path5263"
         d="M 198.28681,207.41367 V 99.413666 L 104.75606,45.413665 11.225321,99.413666 V 207.41367 l 93.530739,54 z"
         style="opacity:1;fill:none;stroke:#fafafa;stroke-width:3.17499995;stroke-linecap:butt;stroke-linejoin:bevel;stroke-miterlimit:4;stroke-dasharray:none;stroke-opacity:1;paint-order:markers fill stroke" />
      <path
         inkscape:connector-curvature="0"
         id="path5267"
         d="m 104.75606,261.41367 v -108 l 93.53075,-54.000004"
         style="opacity:1;fill:none;stroke:#fafafa;stroke-width:3.17499995;stroke-linecap:butt;stroke-linejoin:bevel;stroke-miterlimit:4;stroke-dasharray:none;stroke-opacity:1;paint-order:markers fill stroke" />
      <path
         inkscape:connector-curvature="0"
         id="path5269"
         d="M 104.75606,153.41367 11.225321,99.413666 v 0 0"
         style="opacity:1;fill:none;stroke:#fafafa;stroke-width:3.17499995;stroke-linecap:butt;stroke-linejoin:bevel;stroke-miterlimit:4;stroke-dasharray:none;stroke-opacity:1;paint-order:markers fill stroke" />
      <path
         inkscape:connector-curvature="0"
         id="path5283"
         d="m 135.93298,135.41367 v 108"
         style="opacity:1;fill:none;stroke:#fafafa;stroke-width:3.17499995;stroke-linecap:butt;stroke-linejoin:bevel;stroke-miterlimit:4;stroke-dasharray:none;stroke-opacity:1;paint-order:markers fill stroke" />
      <path
         inkscape:connector-curvature="0"
         id="path5285"
         d="m 135.93298,243.41367 -124.707659,-72 v 0"
         style="opacity:1;fill:none;stroke:#fafafa;stroke-width:3.17499995;stroke-linecap:butt;stroke-linejoin:bevel;stroke-miterlimit:4;stroke-dasharray:none;stroke-opacity:1;paint-order:markers fill stroke" />
      <path
         inkscape:connector-curvature="0"
         id="path5287"
         d="m 104.75606,189.41367 -93.530739,-54 v 0 0 L 135.93298,63.413665"
         style="opacity:1;fill:none;stroke:#fafafa;stroke-width:3.17499995;stroke-linecap:butt;stroke-linejoin:bevel;stroke-miterlimit:4;stroke-dasharray:none;stroke-opacity:1;paint-order:markers fill stroke" />
      <path
         inkscape:connector-curvature="0"
         id="path5289"
         d="M 73.579151,135.41367 167.10989,81.413664"
         style="opacity:1;fill:none;stroke:#fafafa;stroke-width:3.17499995;stroke-linecap:butt;stroke-linejoin:bevel;stroke-miterlimit:4;stroke-dasharray:none;stroke-opacity:1;paint-order:markers fill stroke" />
      <path
         inkscape:connector-curvature="0"
         id="path5291"
         d="m 167.10989,81.413664 v 144.000006 0"
         style="opacity:1;fill:none;stroke:#fafafa;stroke-width:3.17499995;stroke-linecap:butt;stroke-linejoin:bevel;stroke-miterlimit:4;stroke-dasharray:none;stroke-opacity:1;paint-order:markers fill stroke" />
      <path
         inkscape:connector-curvature="0"
         id="path5293"
         d="M 104.75606,45.413665 V 81.413664"
         style="opacity:1;fill:none;stroke:#fafafa;stroke-width:3.17499995;stroke-linecap:butt;stroke-linejoin:bevel;stroke-miterlimit:4;stroke-dasharray:none;stroke-opacity:1;paint-order:markers fill stroke" />
      <path
         inkscape:connector-curvature="0"
         id="path5295"
         d="M 135.93298,63.413663 V 99.413666"
         style="opacity:1;fill:none;stroke:#fafafa;stroke-width:3.17499995;stroke-linecap:butt;stroke-linejoin:bevel;stroke-miterlimit:4;stroke-dasharray:none;stroke-opacity:1;paint-order:markers fill stroke" />
      <path
         inkscape:connector-curvature="0"
         id="path5297"
         d="m 167.10989,225.41367 -31.17691,-18"
         style="opacity:1;fill:none;stroke:#fafafa;stroke-width:3.17499995;stroke-linecap:butt;stroke-linejoin:bevel;stroke-miterlimit:4;stroke-dasharray:none;stroke-opacity:1;paint-order:markers fill stroke" />
      <path
         inkscape:connector-curvature="0"
         id="path5299"
         d="m 198.28681,207.41367 -31.17692,-18"
         style="opacity:1;fill:none;stroke:#fafafa;stroke-width:3.17499995;stroke-linecap:butt;stroke-linejoin:bevel;stroke-miterlimit:4;stroke-dasharray:none;stroke-opacity:1;paint-order:markers fill stroke" />
      <path
         inkscape:connector-curvature="0"
         id="path5301"
         d="m 11.225321,207.41367 31.176915,-18"
         style="opacity:1;fill:none;stroke:#fafafa;stroke-width:3.17499995;stroke-linecap:butt;stroke-linejoin:bevel;stroke-miterlimit:4;stroke-dasharray:none;stroke-opacity:1;paint-order:markers fill stroke" />
      <path
         inkscape:connector-curvature="0"
         id="path5303"
         d="m 11.225321,171.41367 31.176915,-18"
         style="opacity:1;fill:none;stroke:#fafafa;stroke-width:3.17499995;stroke-linecap:butt;stroke-linejoin:bevel;stroke-miterlimit:4;stroke-dasharray:none;stroke-opacity:1;paint-order:markers fill stroke" />
      <path
         inkscape:connector-curvature="0"
         id="path5305"
         d="m 11.44637,189.50898 c 0,-14.91737 0.0551,-17.50009 0.370766,-17.37896 0.284078,0.10901 29.692631,17.01287 29.989626,17.23786 0.03608,0.0273 -6.512358,3.84211 -14.552084,8.47729 -8.039726,4.63518 -14.885574,8.59802 -15.212996,8.80632 l -0.595312,0.37873 z"
         style="opacity:1;fill:#b4b4b4;fill-opacity:1;stroke:#fafafa;stroke-width:3.17499995;stroke-linejoin:bevel;stroke-miterlimit:4;stroke-dasharray:none;stroke-opacity:1;paint-order:markers fill stroke" />
      <path
         inkscape:connector-curvature="0"
         id="path5307"
         d="m 11.44637,153.42692 v -17.58541 l 14.882812,8.59855 c 8.185547,4.72921 15.032551,8.68314 15.215561,8.78651 0.201615,0.11389 -5.523588,3.57219 -14.527376,8.77527 -8.173069,4.72302 -15.020071,8.68252 -15.215561,8.79889 -0.296083,0.17626 -0.355436,-2.72494 -0.355436,-17.37381 z"
         style="opacity:1;fill:#b4b4b4;fill-opacity:1;stroke:#fafafa;stroke-width:3.17499995;stroke-linejoin:bevel;stroke-miterlimit:4;stroke-dasharray:none;stroke-opacity:1;paint-order:markers fill stroke" />
      <path
         inkscape:connector-curvature="0"
         id="path5309"
         d="M 11.44637,117.3913 V 99.800906 l 0.595312,0.375754 c 0.327422,0.20666 7.14375,4.15176 15.147396,8.7669 8.003646,4.61513 14.577335,8.41303 14.608199,8.43976 0.03086,0.0267 -4.195856,2.50158 -9.392708,5.49964 -5.196854,2.99807 -12.038434,6.94676 -15.203512,8.77488 l -5.754687,3.32384 z"
         style="opacity:1;fill:#b4b4b4;fill-opacity:1;stroke:#fafafa;stroke-width:3.17499995;stroke-linejoin:bevel;stroke-miterlimit:4;stroke-dasharray:none;stroke-opacity:1;paint-order:markers fill stroke" />
      <path
         inkscape:connector-curvature="0"
         id="path5311"
         d="m 42.260406,116.77712 c -0.140062,-0.13229 -6.803099,-4.02048 -14.806745,-8.64043 -8.003646,-4.61995 -14.700405,-8.535314 -14.881688,-8.700804 -0.252846,-0.23082 10.283592,-6.425878 45.24375,-26.601754 25.065344,-14.465475 45.841237,-26.47097 46.168667,-26.678877 l 0.59531,-0.37801 V 63.494303 81.211364 L 73.707119,99.045046 c -16.979918,9.808534 -30.944462,17.864944 -31.032317,17.903144 -0.08785,0.0382 -0.274333,-0.0388 -0.414396,-0.17107 z"
         style="opacity:1;fill:#b4b4b4;fill-opacity:1;stroke:#fafafa;stroke-width:3.17499995;stroke-linejoin:bevel;stroke-miterlimit:4;stroke-dasharray:none;stroke-opacity:1;paint-order:markers fill stroke" />
      <path
         inkscape:connector-curvature="0"
         id="path5313"
         d="m 105.37345,63.44771 c 0,-9.556938 0.0893,-17.322786 0.19844,-17.257437 0.10914,0.06535 6.74687,3.894585 14.75052,8.509413 8.00364,4.61483 14.64627,8.478533 14.76139,8.586009 0.11513,0.107474 -6.25472,3.924319 -14.15521,8.481875 -7.90048,4.557559 -14.63241,8.459703 -14.95983,8.67143 l -0.59531,0.384964 z"
         style="opacity:1;fill:#737373;fill-opacity:1;stroke:#fafafa;stroke-width:3.17499995;stroke-linejoin:bevel;stroke-miterlimit:4;stroke-dasharray:none;stroke-opacity:1;paint-order:markers fill stroke" />
      <path
         inkscape:connector-curvature="0"
         id="path5315"
         d="M 136.06512,81.428857 V 63.777503 l 0.85989,0.507134 c 0.47294,0.278924 7.32496,4.237641 15.2267,8.797147 7.90174,4.559507 14.27158,8.371139 14.15521,8.470292 -0.11638,0.09915 -6.7005,3.913441 -14.63139,8.476197 -7.93088,4.562755 -14.68768,8.466023 -15.0151,8.673923 l -0.59531,0.37802 z"
         style="opacity:1;fill:#737373;fill-opacity:1;stroke:#fafafa;stroke-width:3.17499995;stroke-linejoin:bevel;stroke-miterlimit:4;stroke-dasharray:none;stroke-opacity:1;paint-order:markers fill stroke" />
      <path
         inkscape:connector-curvature="0"
         id="path5317"
         d="M 167.28595,99.432456 V 81.810732 l 1.27014,0.732957 c 0.69858,0.403127 7.54534,4.357841 15.21501,8.788257 l 13.94487,8.0553 -0.72908,0.45214 c -0.40099,0.248684 -6.86079,3.988044 -14.35511,8.309704 -7.49432,4.32166 -14.01299,8.09326 -14.48594,8.38133 l -0.85989,0.52376 z"
         style="opacity:1;fill:#737373;fill-opacity:1;stroke:#fafafa;stroke-width:3.17499995;stroke-linejoin:bevel;stroke-miterlimit:4;stroke-dasharray:none;stroke-opacity:1;paint-order:markers fill stroke" />
      <path
         inkscape:connector-curvature="0"
         id="path5319"
         d="m 182.63178,198.06684 -15.21354,-8.78466 -0.0671,-35.59968 -0.0671,-35.59969 0.59627,-0.38791 c 1.6167,-1.05175 29.93204,-17.3415 30.00928,-17.26427 0.0491,0.0491 0.0593,24.01392 0.0225,53.2551 l -0.0668,53.16577 z"
         style="opacity:1;fill:#737373;fill-opacity:1;stroke:#fafafa;stroke-width:3.17499995;stroke-linejoin:bevel;stroke-miterlimit:4;stroke-dasharray:none;stroke-opacity:1;paint-order:markers fill stroke" />
      <path
         inkscape:connector-curvature="0"
         id="path5321"
         d="m 167.28595,207.62438 c 0,-9.83391 0.10057,-17.32961 0.23184,-17.27968 0.45625,0.17357 29.93186,17.24052 29.86581,17.2929 -0.0371,0.0294 -6.73494,3.89456 -14.88411,8.58922 -8.14917,4.69466 -14.90596,8.58742 -15.0151,8.65059 -0.10914,0.0632 -0.19844,-7.7007 -0.19844,-17.25303 z"
         style="opacity:1;fill:#5e5e5e;fill-opacity:1;stroke:#fafafa;stroke-width:3.17499995;stroke-linejoin:bevel;stroke-miterlimit:4;stroke-dasharray:none;stroke-opacity:1;paint-order:markers fill stroke" />
      <path
         inkscape:connector-curvature="0"
         id="path5331"
         d="m 168.19969,223.04001 c -0.20247,-0.52764 -0.0177,-30.81356 0.18923,-31.02032 0.1582,-0.15805 6.06524,3.18423 22.22839,12.5771 2.86407,1.66439 5.18578,3.04111 5.15937,3.05937 -0.18793,0.1299 -26.36926,15.17451 -26.84101,15.42368 -0.47967,0.25335 -0.62652,0.2454 -0.73598,-0.0398 z"
         style="opacity:1;fill:#323232;fill-opacity:1;stroke:#fafafa;stroke-width:3.17499995;stroke-linejoin:bevel;stroke-miterlimit:4;stroke-dasharray:none;stroke-opacity:1;paint-order:markers fill stroke" />
      <path
         inkscape:connector-curvature="0"
         id="path5333"
         d="m 136.06512,225.38046 v -17.59084 l 4.56406,2.63973 c 2.51023,1.45186 9.35379,5.4013 15.2079,8.77655 5.85412,3.37525 10.55708,6.21907 10.45105,6.31961 -0.17733,0.16812 -28.27564,16.41432 -29.6277,17.13047 l -0.59531,0.31533 z"
         style="opacity:1;fill:#323232;fill-opacity:1;stroke:#fafafa;stroke-width:3.17499995;stroke-linejoin:bevel;stroke-miterlimit:4;stroke-dasharray:none;stroke-opacity:1;paint-order:markers fill stroke" />
      <path
         inkscape:connector-curvature="0"
         id="path5335"
         d="m 105.10887,243.4515 c 0,-9.61193 0.0971,-17.43655 0.21584,-17.38805 1.27306,0.52017 29.88748,17.31859 29.74388,17.46148 -0.10676,0.10623 -6.20676,3.6645 -13.55556,7.90725 -7.3488,4.24278 -14.04607,8.11496 -14.88281,8.60483 l -1.52135,0.89072 z"
         style="opacity:1;fill:#323232;fill-opacity:1;stroke:#fafafa;stroke-width:3.17499995;stroke-linejoin:bevel;stroke-miterlimit:4;stroke-dasharray:none;stroke-opacity:1;paint-order:markers fill stroke" />
      <path
         inkscape:connector-curvature="0"
         id="path5337"
         d="M 58.193739,234.23918 C 33.04526,219.71113 12.46358,207.72767 12.456671,207.60925 c -0.0069,-0.11841 6.162557,-3.79419 13.709923,-8.1684 7.547366,-4.37421 14.329586,-8.32712 15.0716,-8.78424 l 1.349113,-0.83112 31.013177,17.8985 31.013176,17.89849 -0.14927,0.76068 c -0.0821,0.41837 -0.14927,8.30626 -0.14927,17.52864 0,9.22239 -0.0893,16.76212 -0.19844,16.755 -0.10914,-0.007 -20.774463,-11.89958 -45.922941,-26.42762 z"
         style="opacity:1;fill:#323232;fill-opacity:1;stroke:#fafafa;stroke-width:3.17499995;stroke-linejoin:bevel;stroke-miterlimit:4;stroke-dasharray:none;stroke-opacity:1;paint-order:markers fill stroke" />
      <path
         inkscape:connector-curvature="0"
         id="path5341"
         d="m 162.77096,222.34977 c -1.82841,-1.11597 -8.58432,-5.06287 -15.01315,-8.77088 l -11.68877,-6.74183 -0.002,-35.59408 -0.002,-35.59409 15.1474,-8.74815 15.14739,-8.74815 0.1323,36.00787 c 0.15274,41.57491 0.0686,70.283 -0.20591,70.24488 -0.10503,-0.0146 -1.68693,-0.93959 -3.51534,-2.05557 z"
         style="opacity:1;fill:#737373;fill-opacity:1;stroke:#fafafa;stroke-width:3.17499995;stroke-linejoin:bevel;stroke-miterlimit:4;stroke-dasharray:none;stroke-opacity:1;paint-order:markers fill stroke" />
      <path
         inkscape:connector-curvature="0"
         id="path5343"
         d="m 129.71512,239.30024 c -4.48414,-2.69147 -19.21064,-11.29783 -23.48272,-13.7236 l -1.12544,-0.63904 0.0671,-35.74717 0.0671,-35.74718 14.94896,-8.63234 14.94895,-8.63234 0.0674,26.68523 c 0.0371,14.67688 0.0371,38.61176 0,53.18863 l -0.0674,26.50338 z"
         style="opacity:1;fill:#737373;fill-opacity:1;stroke:#fafafa;stroke-width:3.17499995;stroke-linejoin:bevel;stroke-miterlimit:4;stroke-dasharray:none;stroke-opacity:1;paint-order:markers fill stroke" />
      <path
         inkscape:connector-curvature="0"
         id="path5349"
         d="m 77.592203,209.05618 c -14.624844,-8.4406 -28.614688,-16.51221 -31.088542,-17.93691 -2.473854,-1.4247 -9.43901,-5.44374 -15.478125,-8.9312 -6.039114,-3.48746 -12.619534,-7.27097 -14.623155,-8.4078 -2.003621,-1.13683 -3.693179,-2.14824 -3.754573,-2.24758 -0.06139,-0.0993 2.232775,-1.53643 5.098155,-3.19353 12.03389,-6.95942 19.397616,-11.28137 21.950983,-12.88356 l 2.718284,-1.70569 1.118174,0.62974 c 5.682305,3.20016 60.199646,34.74121 60.452906,34.97507 0.26199,0.24193 0.31819,3.99664 0.26458,17.67759 l -0.0681,17.37041 z"
         style="opacity:1;fill:#323232;fill-opacity:1;stroke:#fafafa;stroke-width:3.17499995;stroke-linejoin:bevel;stroke-miterlimit:4;stroke-dasharray:none;stroke-opacity:1;paint-order:markers fill stroke" />
      <path
         inkscape:connector-curvature="0"
         id="path5351"
         d="M 101.00782,186.6721 C 97.286353,184.45375 62.604594,164.38475 34.597411,148.24294 22.664703,141.36558 12.807579,135.6517 12.692691,135.54543 c -0.114889,-0.10627 5.54058,-3.50996 12.567708,-7.56376 7.027127,-4.05379 13.807304,-7.9927 15.067059,-8.75313 l 2.290461,-1.3826 30.836433,17.77265 30.836428,17.77264 0.0122,17.52865 c 0.007,9.64075 -0.0771,17.5193 -0.18627,17.50787 -0.10914,-0.0114 -1.50812,-0.80146 -3.10885,-1.75565 z"
         style="opacity:1;fill:#323232;fill-opacity:1;stroke:#fafafa;stroke-width:3.17499995;stroke-linejoin:bevel;stroke-miterlimit:4;stroke-dasharray:none;stroke-opacity:1;paint-order:markers fill stroke" />
      <path
         inkscape:connector-curvature="0"
         id="path5353"
         d="m 61.584911,127.8289 c -6.548437,-3.7853 -13.285856,-7.67884 -14.972043,-8.65232 l -3.065791,-1.76997 24.068125,-13.88998 C 80.852671,95.877136 95.210089,87.597178 99.520574,85.11672 113.43351,77.110555 129.50997,67.760389 132.32517,66.03737 c 1.50829,-0.92314 2.78822,-1.678432 2.84427,-1.678432 0.0561,0 0.10193,7.905202 0.10193,17.567118 v 17.56712 l -30.5263,17.622464 c -16.789453,9.69236 -30.69,17.61642 -30.890096,17.60904 -0.200097,-0.007 -5.721626,-3.11049 -12.270063,-6.89578 z"
         style="opacity:1;fill:#b4b4b4;fill-opacity:1;stroke:#fafafa;stroke-width:3.17499995;stroke-linejoin:bevel;stroke-miterlimit:4;stroke-dasharray:none;stroke-opacity:1;paint-order:markers fill stroke" />
      <path
         inkscape:connector-curvature="0"
         id="path5355"
         d="m 89.70334,144.04993 c -8.254759,-4.7577 -15.011555,-8.71594 -15.015104,-8.79608 -0.0035,-0.0801 0.552091,-0.41707 1.234753,-0.74874 1.353206,-0.65744 21.694094,-12.29688 44.664001,-25.55758 34.41093,-19.865704 43.92928,-25.367455 44.69506,-25.834428 0.4473,-0.272765 0.90257,-0.496383 1.01171,-0.496925 0.10914,-5.29e-4 0.19648,7.767838 0.19409,17.263069 l -0.004,17.264074 -6.2795,3.6106 c -3.45373,1.98583 -17.33297,9.99278 -30.84276,17.79323 -13.50978,7.80044 -24.58259,14.17599 -24.60625,14.16789 -0.0237,-0.008 -6.796887,-3.90741 -15.051649,-8.66511 z"
         style="opacity:1;fill:#b4b4b4;fill-opacity:1;stroke:#fafafa;stroke-width:3.17499995;stroke-linejoin:bevel;stroke-miterlimit:4;stroke-dasharray:none;stroke-opacity:1;paint-order:markers fill stroke" />
    </g>
  </g>
</svg>
